<svg width="25" height="25" viewBox="0 0 25 25" fill="none" xmlns="http://www.w3.org/2000/svg">
<g id="mingcute:menu-fill" clip-path="url(#clip0_354_859)">
<g id="Group">
<path id="Vector" d="M20.4676 18C20.8528 18.0002 21.2232 18.1486 21.502 18.4144C21.7808 18.6802 21.9466 19.0431 21.9651 19.4279C21.9836 19.8127 21.8534 20.1898 21.6014 20.4812C21.3494 20.7726 20.995 20.9558 20.6116 20.993L20.4676 21H4.46759C4.08237 20.9998 3.712 20.8514 3.4332 20.5856C3.15441 20.3198 2.98858 19.9569 2.97007 19.5721C2.95155 19.1873 3.08178 18.8102 3.33377 18.5188C3.58575 18.2274 3.94017 18.0442 4.32359 18.007L4.46759 18H20.4676ZM20.4676 11C20.8654 11 21.2469 11.158 21.5282 11.4393C21.8096 11.7206 21.9676 12.1022 21.9676 12.5C21.9676 12.8978 21.8096 13.2794 21.5282 13.5607C21.2469 13.842 20.8654 14 20.4676 14H4.46759C4.06977 14 3.68823 13.842 3.40693 13.5607C3.12563 13.2794 2.96759 12.8978 2.96759 12.5C2.96759 12.1022 3.12563 11.7206 3.40693 11.4393C3.68823 11.158 4.06977 11 4.46759 11H20.4676ZM20.4676 4C20.8654 4 21.2469 4.15804 21.5282 4.43934C21.8096 4.72064 21.9676 5.10218 21.9676 5.5C21.9676 5.89782 21.8096 6.27936 21.5282 6.56066C21.2469 6.84196 20.8654 7 20.4676 7H4.46759C4.06977 7 3.68823 6.84196 3.40693 6.56066C3.12563 6.27936 2.96759 5.89782 2.96759 5.5C2.96759 5.10218 3.12563 4.72064 3.40693 4.43934C3.68823 4.15804 4.06977 4 4.46759 4H20.4676Z" fill="#646161"/>
</g>
</g>
<defs>
<clipPath id="clip0_354_859">
<rect width="24" height="24" fill="white" transform="translate(0.46759 0.5)"/>
</clipPath>
</defs>
</svg>
