<svg width="218" height="25" viewBox="0 0 218 25" fill="none" xmlns="http://www.w3.org/2000/svg">
<g id="Logo">
<g id=".digital">
<path d="M88.6554 25C87.7633 25 87.0018 24.6899 86.3708 24.0698C85.7507 23.4389 85.4407 22.6773 85.4407 21.7852C85.4407 20.904 85.7507 20.1534 86.3708 19.5333C87.0018 18.9023 87.7633 18.5868 88.6554 18.5868C89.5366 18.5868 90.2873 18.9023 90.9074 19.5333C91.5384 20.1534 91.8539 20.904 91.8539 21.7852C91.8539 22.6773 91.5384 23.4389 90.9074 24.0698C90.2873 24.6899 89.5366 25 88.6554 25Z" fill="#A6A5A5"/>
<path d="M95.573 24.4778V0.407965H104.516C106.136 0.407965 107.621 0.707138 108.97 1.30548C110.319 1.90383 111.484 2.74152 112.463 3.81854C113.442 4.89556 114.198 6.16297 114.731 7.62076C115.264 9.07855 115.531 10.6669 115.531 12.3858C115.531 14.1047 115.264 15.6984 114.731 17.1671C114.198 18.6358 113.442 19.9195 112.463 21.0183C111.484 22.1062 110.319 22.9547 108.97 23.564C107.621 24.1732 106.136 24.4778 104.516 24.4778H95.573ZM102.166 22.5522L99.1957 19.5822H103.634C104.57 19.5822 105.429 19.294 106.213 18.7174C107.007 18.1299 107.643 17.2976 108.122 16.2206C108.601 15.1436 108.84 13.8653 108.84 12.3858C108.84 10.8953 108.601 9.6225 108.122 8.56723C107.643 7.51197 107.007 6.70692 106.213 6.15209C105.429 5.58638 104.57 5.30353 103.634 5.30353H99.1957L102.166 2.33355V22.5522Z" fill="#A6A5A5"/>
<path d="M118.376 24.4778V0.407965H124.87V24.4778H118.376Z" fill="#A6A5A5"/>
<path d="M138.405 24.9021C136.425 24.9021 134.625 24.4397 133.004 23.515C131.383 22.5794 130.094 21.1978 129.136 19.3701C128.19 17.5315 127.717 15.2524 127.717 12.5326C127.717 9.81288 128.228 7.52285 129.251 5.66253C130.273 3.80222 131.644 2.39339 133.363 1.43603C135.093 0.478677 137.018 0 139.14 0C140.935 0 142.452 0.277415 143.692 0.832245C144.944 1.38708 145.955 2.09965 146.728 2.96997C147.511 3.82942 148.077 4.73238 148.425 5.67885C148.784 6.62533 148.963 7.49021 148.963 8.2735C148.963 8.30614 148.963 8.33877 148.963 8.37141C148.963 8.40405 148.963 8.43668 148.963 8.46932H142.567C142.567 8.43668 142.567 8.40405 142.567 8.37141C142.567 8.33877 142.567 8.30614 142.567 8.2735C142.567 7.8601 142.485 7.46301 142.322 7.08224C142.169 6.70148 141.941 6.36423 141.636 6.0705C141.343 5.76588 140.984 5.52655 140.559 5.35248C140.135 5.17842 139.662 5.09138 139.14 5.09138C138.422 5.09138 137.698 5.30353 136.969 5.72781C136.24 6.15209 135.631 6.90274 135.142 7.97977C134.652 9.04591 134.407 10.5635 134.407 12.5326C134.407 14.0122 134.543 15.2306 134.815 16.188C135.098 17.1345 135.463 17.8742 135.909 18.4073C136.365 18.9295 136.866 19.2994 137.41 19.517C137.965 19.7237 138.514 19.827 139.058 19.827C139.841 19.827 140.51 19.7019 141.065 19.4517C141.631 19.1906 142.077 18.8751 142.403 18.5052C142.741 18.1245 142.953 17.7546 143.04 17.3956V16.4817H139.025V11.9289H148.865V24.4778H145.798L145.129 21.8179C145.052 22.0572 144.867 22.351 144.574 22.6991C144.291 23.0472 143.883 23.3899 143.35 23.7272C142.817 24.0644 142.142 24.3418 141.326 24.5594C140.51 24.7879 139.537 24.9021 138.405 24.9021Z" fill="#A6A5A5"/>
<path d="M152.479 24.4778V0.407965H158.974V24.4778H152.479Z" fill="#A6A5A5"/>
<path d="M179.509 5.30353H170.893L173.863 2.33355V24.4778H167.287V2.33355L170.257 5.30353H161.657V0.407965H179.509V5.30353Z" fill="#A6A5A5"/>
<path d="M178.701 24.4778L184.298 0.407965H194.758L200.323 24.4778H193.583L189.52 4.34073H189.552L185.44 24.4778H178.701ZM183.596 19.4191V14.4745H195.476V19.4191H183.596Z" fill="#A6A5A5"/>
<path d="M202.759 24.4778V0.407965H209.352V22.5359L206.382 19.2396H217.935V24.4778H202.759Z" fill="#A6A5A5"/>
</g>
<g id="only">
<path d="M11.6645 25C10.1027 25 8.6173 24.7324 7.20839 24.1972C5.8104 23.6621 4.57077 22.8648 3.48952 21.8054C2.40826 20.746 1.55636 19.4353 0.933814 17.8735C0.311271 16.3117 0 14.5096 0 12.4672C0 10.4139 0.30581 8.61184 0.917431 7.06094C1.53997 5.51005 2.38641 4.21035 3.45675 3.16186C4.53801 2.11337 5.77763 1.327 7.17562 0.802753C8.58453 0.267584 10.0808 0 11.6645 0C13.2481 0 14.7444 0.267584 16.1533 0.802753C17.5623 1.327 18.8019 2.11337 19.8722 3.16186C20.9535 4.21035 21.7999 5.51005 22.4115 7.06094C23.0232 8.61184 23.329 10.4139 23.329 12.4672C23.329 14.5096 23.0177 16.3117 22.3951 17.8735C21.7726 19.4353 20.9152 20.746 19.8231 21.8054C18.7418 22.8648 17.4967 23.6621 16.0878 24.1972C14.6898 24.7324 13.2154 25 11.6645 25ZM11.6645 19.8886C12.4727 19.8886 13.2536 19.6702 14.0072 19.2333C14.7717 18.7855 15.3943 18.021 15.8748 16.9397C16.3663 15.8585 16.6121 14.3676 16.6121 12.4672C16.6121 10.5559 16.3663 9.07055 15.8748 8.01114C15.3834 6.9408 14.7608 6.19266 14.0072 5.76671C13.2536 5.32984 12.4727 5.1114 11.6645 5.1114C10.8672 5.1114 10.0863 5.32984 9.32176 5.76671C8.56815 6.19266 7.94561 6.9408 7.45413 8.01114C6.96265 9.07055 6.71691 10.5559 6.71691 12.4672C6.71691 14.3786 6.96265 15.8748 7.45413 16.9561C7.94561 18.0264 8.56815 18.7855 9.32176 19.2333C10.0863 19.6702 10.8672 19.8886 11.6645 19.8886Z" fill="#9074FF"/>
<path d="M32.7237 24.574H26.2853V0.409569H36.377L43.0448 22.5917L41.7669 22.8539V0.409569H48.2053V24.574H38.0317L31.3639 2.47379L32.7237 2.21167V24.574Z" fill="#9074FF"/>
<path d="M51.8192 24.574V0.409569H58.4379V22.6245L55.4562 19.3152H67.0552V24.574H51.8192Z" fill="#9074FF"/>
<path d="M85.0953 0.409569L77.9197 16.3008V24.574H71.3338V16.3008L64.2074 0.409569H71.2028L75.9374 13.2372H73.3489L78.0835 0.409569H85.0953Z" fill="#9074FF"/>
</g>
</g>
</svg>
