<svg width="218" height="26" viewBox="0 0 218 26" fill="none" xmlns="http://www.w3.org/2000/svg">
<g id="Logo">
<g id=".digital">
<path d="M88.6554 25.8325C87.7633 25.8325 87.0018 25.5225 86.3708 24.9024C85.7507 24.2714 85.4407 23.5098 85.4407 22.6178C85.4407 21.7366 85.7507 20.9859 86.3708 20.3658C87.0018 19.7348 87.7633 19.4193 88.6554 19.4193C89.5366 19.4193 90.2873 19.7348 90.9074 20.3658C91.5384 20.9859 91.8539 21.7366 91.8539 22.6178C91.8539 23.5098 91.5384 24.2714 90.9074 24.9024C90.2873 25.5225 89.5366 25.8325 88.6554 25.8325Z" fill="#646161"/>
<path d="M95.573 25.3103V1.24048H104.516C106.136 1.24048 107.621 1.53966 108.97 2.138C110.319 2.73635 111.484 3.57404 112.463 4.65106C113.442 5.72808 114.198 6.99549 114.731 8.45328C115.264 9.91107 115.531 11.4994 115.531 13.2183C115.531 14.9372 115.264 16.531 114.731 17.9996C114.198 19.4683 113.442 20.752 112.463 21.8508C111.484 22.9387 110.319 23.7873 108.97 24.3965C107.621 25.0057 106.136 25.3103 104.516 25.3103H95.573ZM102.166 23.3847L99.1957 20.4148H103.634C104.57 20.4148 105.429 20.1265 106.213 19.5499C107.007 18.9624 107.643 18.1302 108.122 17.0531C108.601 15.9761 108.84 14.6978 108.84 13.2183C108.84 11.7279 108.601 10.455 108.122 9.39975C107.643 8.34449 107.007 7.53944 106.213 6.98461C105.429 6.4189 104.57 6.13604 103.634 6.13604H99.1957L102.166 3.16607V23.3847Z" fill="#646161"/>
<path d="M118.376 25.3103V1.24048H124.87V25.3103H118.376Z" fill="#646161"/>
<path d="M138.405 25.7346C136.425 25.7346 134.625 25.2722 133.004 24.3475C131.383 23.4119 130.094 22.0303 129.136 20.2026C128.19 18.3641 127.717 16.0849 127.717 13.3652C127.717 10.6454 128.228 8.35537 129.251 6.49505C130.273 4.63474 131.644 3.22591 133.363 2.26855C135.093 1.3112 137.018 0.83252 139.14 0.83252C140.935 0.83252 142.452 1.10993 143.692 1.66476C144.944 2.2196 145.955 2.93217 146.728 3.80249C147.511 4.66194 148.077 5.5649 148.425 6.51137C148.784 7.45785 148.963 8.32273 148.963 9.10602C148.963 9.13866 148.963 9.17129 148.963 9.20393C148.963 9.23657 148.963 9.2692 148.963 9.30184H142.567C142.567 9.2692 142.567 9.23657 142.567 9.20393C142.567 9.17129 142.567 9.13866 142.567 9.10602C142.567 8.69262 142.485 8.29553 142.322 7.91476C142.169 7.534 141.941 7.19675 141.636 6.90302C141.343 6.5984 140.984 6.35907 140.559 6.185C140.135 6.01094 139.662 5.9239 139.14 5.9239C138.422 5.9239 137.698 6.13604 136.969 6.56033C136.24 6.98461 135.631 7.73526 135.142 8.81228C134.652 9.87843 134.407 11.3961 134.407 13.3652C134.407 14.8447 134.543 16.0632 134.815 17.0205C135.098 17.967 135.463 18.7068 135.909 19.2398C136.365 19.762 136.866 20.1319 137.41 20.3495C137.965 20.5562 138.514 20.6595 139.058 20.6595C139.841 20.6595 140.51 20.5344 141.065 20.2842C141.631 20.0231 142.077 19.7076 142.403 19.3377C142.741 18.957 142.953 18.5871 143.04 18.2281V17.3142H139.025V12.7614H148.865V25.3103H145.798L145.129 22.6504C145.052 22.8897 144.867 23.1835 144.574 23.5316C144.291 23.8797 143.883 24.2224 143.35 24.5597C142.817 24.8969 142.142 25.1743 141.326 25.3919C140.51 25.6204 139.537 25.7346 138.405 25.7346Z" fill="#646161"/>
<path d="M152.479 25.3103V1.24048H158.974V25.3103H152.479Z" fill="#646161"/>
<path d="M179.509 6.13604H170.893L173.863 3.16607V25.3103H167.287V3.16607L170.257 6.13604H161.657V1.24048H179.509V6.13604Z" fill="#646161"/>
<path d="M178.701 25.3103L184.298 1.24048H194.758L200.323 25.3103H193.583L189.52 5.17325H189.552L185.44 25.3103H178.701ZM183.596 20.2516V15.3071H195.476V20.2516H183.596Z" fill="#646161"/>
<path d="M202.759 25.3103V1.24048H209.352V23.3684L206.382 20.0721H217.935V25.3103H202.759Z" fill="#646161"/>
</g>
<g id="only">
<path d="M11.6645 25.8325C10.1027 25.8325 8.6173 25.5649 7.20839 25.0298C5.8104 24.4946 4.57077 23.6973 3.48952 22.6379C2.40826 21.5785 1.55636 20.2679 0.933814 18.706C0.311271 17.1442 0 15.3421 0 13.2998C0 11.2465 0.30581 9.44436 0.917431 7.89346C1.53997 6.34257 2.38641 5.04287 3.45675 3.99438C4.53801 2.94589 5.77763 2.15952 7.17562 1.63527C8.58453 1.1001 10.0808 0.83252 11.6645 0.83252C13.2481 0.83252 14.7444 1.1001 16.1533 1.63527C17.5623 2.15952 18.8019 2.94589 19.8722 3.99438C20.9535 5.04287 21.7999 6.34257 22.4115 7.89346C23.0232 9.44436 23.329 11.2465 23.329 13.2998C23.329 15.3421 23.0177 17.1442 22.3951 18.706C21.7726 20.2679 20.9152 21.5785 19.8231 22.6379C18.7418 23.6973 17.4967 24.4946 16.0878 25.0298C14.6898 25.5649 13.2154 25.8325 11.6645 25.8325ZM11.6645 20.7211C12.4727 20.7211 13.2536 20.5027 14.0072 20.0658C14.7717 19.618 15.3943 18.8535 15.8748 17.7722C16.3663 16.691 16.6121 15.2001 16.6121 13.2998C16.6121 11.3884 16.3663 9.90307 15.8748 8.84366C15.3834 7.77332 14.7608 7.02518 14.0072 6.59923C13.2536 6.16236 12.4727 5.94392 11.6645 5.94392C10.8672 5.94392 10.0863 6.16236 9.32176 6.59923C8.56815 7.02518 7.94561 7.77332 7.45413 8.84366C6.96265 9.90307 6.71691 11.3884 6.71691 13.2998C6.71691 15.2111 6.96265 16.7074 7.45413 17.7886C7.94561 18.8589 8.56815 19.618 9.32176 20.0658C10.0863 20.5027 10.8672 20.7211 11.6645 20.7211Z" fill="#9074FF"/>
<path d="M32.7237 25.4066H26.2853V1.24209H36.377L43.0448 23.4243L41.7669 23.6864V1.24209H48.2053V25.4066H38.0317L31.3639 3.30631L32.7237 3.04419V25.4066Z" fill="#9074FF"/>
<path d="M51.8192 25.4066V1.24209H58.4379V23.457L55.4562 20.1477H67.0552V25.4066H51.8192Z" fill="#9074FF"/>
<path d="M85.0953 1.24209L77.9197 17.1333V25.4066H71.3338V17.1333L64.2074 1.24209H71.2028L75.9374 14.0697H73.3489L78.0835 1.24209H85.0953Z" fill="#9074FF"/>
</g>
</g>
</svg>
