<svg width="439" height="438" viewBox="0 0 439 438" fill="none" xmlns="http://www.w3.org/2000/svg">
<path d="M416.5 218.565C416.5 327.365 328.3 415.565 219.5 415.565C110.7 415.565 22.5 327.365 22.5 218.565C22.5 109.765 110.7 21.5647 219.5 21.5647C328.3 21.5647 416.5 109.765 416.5 218.565ZM128.762 218.565C128.762 268.678 169.387 309.303 219.5 309.303C269.613 309.303 310.238 268.678 310.238 218.565C310.238 168.451 269.613 127.826 219.5 127.826C169.387 127.826 128.762 168.451 128.762 218.565Z" fill="url(#paint0_radial_230_319)"/>
<path d="M351.235 142.736C364.492 165.767 371.479 191.871 371.5 218.444C371.521 245.018 364.575 271.133 351.355 294.184L312.529 271.917C321.856 255.653 326.757 237.228 326.742 218.479C326.727 199.731 321.797 181.314 312.444 165.064L351.235 142.736Z" fill="url(#paint1_radial_230_319)" fill-opacity="0.3"/>
<path d="M351.238 142.742C355.068 140.538 359.978 141.847 361.988 145.782C373.463 168.247 379.481 193.144 379.5 218.445C379.519 243.746 373.538 268.652 362.096 291.134C360.092 295.072 355.184 296.388 351.351 294.19C347.519 291.992 346.215 287.112 348.197 283.163C358.26 263.117 363.517 240.961 363.5 218.457C363.483 195.953 358.193 173.805 348.101 153.774C346.113 149.828 347.409 144.946 351.238 142.742Z" fill="#FC846A"/>
<path d="M351.136 294.564C337.849 317.577 318.761 336.705 295.776 350.04C272.79 363.375 246.71 370.451 220.137 370.563L219.949 325.805C238.698 325.726 257.098 320.734 273.316 311.326C289.533 301.917 303 288.422 312.374 272.185L351.136 294.564Z" fill="url(#paint2_radial_230_319)" fill-opacity="0.3"/>
<path d="M351.136 294.564C354.962 296.773 356.29 301.678 353.893 305.39C340.204 326.578 321.675 344.264 299.79 356.96C277.905 369.657 253.355 376.963 228.166 378.329C223.754 378.568 220.155 374.981 220.137 370.563C220.118 366.144 223.688 362.571 228.098 362.307C250.488 360.968 272.296 354.413 291.761 343.121C311.226 331.828 327.741 316.15 340.017 297.378C342.435 293.68 347.31 292.355 351.136 294.564Z" fill="#74ADFF"/>
<path d="M219.747 370.564C193.174 370.607 167.053 363.683 143.99 350.482C120.928 337.281 101.729 318.264 88.3084 295.328L126.939 272.724C136.408 288.906 149.953 302.323 166.225 311.637C182.497 320.951 200.926 325.836 219.674 325.806L219.747 370.564Z" fill="url(#paint3_radial_230_319)" fill-opacity="0.3"/>
<path d="M219.892 370.564C219.903 374.982 216.328 378.594 211.915 378.384C186.718 377.188 162.119 370.048 140.148 357.5C118.178 344.952 99.5301 327.392 85.6981 306.297C83.2755 302.602 84.5701 297.688 88.3815 295.453C92.1928 293.218 97.0758 294.51 99.5189 298.191C111.922 316.88 128.542 332.446 148.083 343.607C167.625 354.767 189.476 361.174 211.874 362.362C216.287 362.596 219.88 366.145 219.892 370.564Z" fill="#9074FF"/>
<path d="M87.7059 294.289C74.4672 271.248 67.5003 245.139 67.5001 218.565C67.5 191.991 74.4664 165.882 87.7049 142.841L126.513 165.138C117.173 181.395 112.258 199.816 112.258 218.565C112.258 237.314 117.174 255.735 126.514 271.991L87.7059 294.289Z" fill="url(#paint4_radial_230_319)" fill-opacity="0.3"/>
<path d="M87.7059 294.289C83.8749 296.49 78.9657 295.177 76.9587 291.241C65.5002 268.768 59.5003 243.866 59.5001 218.565C59.4999 193.264 65.4996 168.362 76.9578 145.889C78.9647 141.953 83.8739 140.64 87.7049 142.841C91.5358 145.042 92.8355 149.923 90.8505 153.87C80.7735 173.909 75.5 196.061 75.5001 218.565C75.5003 241.069 80.7741 263.221 90.8514 283.26C92.8364 287.207 91.5368 292.088 87.7059 294.289Z" fill="#DB74FF"/>
<path d="M87.7059 294.289C83.8749 296.49 78.9657 295.177 76.9587 291.241C65.5002 268.768 59.5003 243.866 59.5001 218.565C59.4999 193.264 65.4996 168.362 76.9578 145.889C78.9647 141.953 83.8739 140.64 87.7049 142.841C91.5358 145.042 92.8355 149.923 90.8505 153.87C80.7735 173.909 75.5 196.061 75.5001 218.565C75.5003 241.069 80.7741 263.221 90.8514 283.26C92.8364 287.207 91.5368 292.088 87.7059 294.289Z" fill="#DB74FF"/>
<path d="M87.7059 294.289C83.8749 296.49 78.9657 295.177 76.9587 291.241C65.5002 268.768 59.5003 243.866 59.5001 218.565C59.4999 193.264 65.4996 168.362 76.9578 145.889C78.9647 141.953 83.8739 140.64 87.7049 142.841C91.5358 145.042 92.8355 149.923 90.8505 153.87C80.7735 173.909 75.5 196.061 75.5001 218.565C75.5003 241.069 80.7741 263.221 90.8514 283.26C92.8364 287.207 91.5368 292.088 87.7059 294.289Z" fill="#DB74FF"/>
<path d="M87.7059 294.289C83.8749 296.49 78.9657 295.177 76.9587 291.241C65.5002 268.768 59.5003 243.866 59.5001 218.565C59.4999 193.264 65.4996 168.362 76.9578 145.889C78.9647 141.953 83.8739 140.64 87.7049 142.841C91.5358 145.042 92.8355 149.923 90.8505 153.87C80.7735 173.909 75.5 196.061 75.5001 218.565C75.5003 241.069 80.7741 263.221 90.8514 283.26C92.8364 287.207 91.5368 292.088 87.7059 294.289Z" fill="#DB74FF"/>
<path d="M87.8643 142.564C101.151 119.551 120.239 100.423 143.225 87.0877C166.21 73.7527 192.29 66.6768 218.863 66.5654L219.051 111.323C200.302 111.402 181.902 116.394 165.685 125.802C149.468 135.211 136 148.706 126.626 164.943L87.8643 142.564Z" fill="url(#paint5_radial_230_319)" fill-opacity="0.3"/>
<path d="M87.8643 142.564C84.0379 140.355 82.71 135.45 85.1076 131.739C98.7966 110.55 117.325 92.8643 139.21 80.1678C161.095 67.4712 185.645 60.165 210.834 58.7989C215.246 58.5596 218.845 62.1472 218.864 66.5654C218.882 70.9836 215.312 74.5572 210.902 74.821C188.512 76.1601 166.704 82.7148 147.239 94.0074C127.774 105.3 111.259 120.978 98.9829 139.75C96.5648 143.448 91.6906 144.773 87.8643 142.564Z" fill="#FB729B"/>
<path d="M219.967 66.5648C246.541 66.6465 272.628 73.6933 295.629 87.0026C318.629 100.312 337.738 119.418 351.051 142.417L312.314 164.839C302.922 148.613 289.44 135.133 273.212 125.742C256.984 116.352 238.578 111.38 219.83 111.323L219.967 66.5648Z" fill="url(#paint6_radial_230_319)" fill-opacity="0.3"/>
<path d="M219.799 66.5644C219.808 62.1461 223.399 58.5505 227.811 58.78C253.003 60.0902 277.569 67.3418 299.482 79.9897C321.396 92.6376 339.963 110.282 353.699 131.44C356.105 135.146 354.788 140.054 350.967 142.272C347.145 144.489 342.268 143.175 339.842 139.482C327.524 120.738 310.974 105.096 291.484 93.8471C271.994 82.5978 250.172 76.0916 227.779 74.8022C223.368 74.5482 219.79 70.9826 219.799 66.5644Z" fill="#FCB56A"/>
<defs>
<radialGradient id="paint0_radial_230_319" cx="0" cy="0" r="1" gradientUnits="userSpaceOnUse" gradientTransform="translate(219.5 218.565) rotate(-90) scale(200.5)">
<stop stop-color="white" stop-opacity="0"/>
<stop offset="1" stop-color="#F2FAFF"/>
</radialGradient>
<radialGradient id="paint1_radial_230_319" cx="0" cy="0" r="1" gradientUnits="userSpaceOnUse" gradientTransform="translate(219.5 218.564) rotate(120) scale(152)">
<stop offset="0.706552" stop-color="#FC846A" stop-opacity="0"/>
<stop offset="1" stop-color="#FC846A"/>
</radialGradient>
<radialGradient id="paint2_radial_230_319" cx="0" cy="0" r="1" gradientUnits="userSpaceOnUse" gradientTransform="translate(219.5 218.564) rotate(120) scale(152)">
<stop offset="0.706552" stop-color="#77A7FF" stop-opacity="0"/>
<stop offset="1" stop-color="#7AA1FF"/>
</radialGradient>
<radialGradient id="paint3_radial_230_319" cx="0" cy="0" r="1" gradientUnits="userSpaceOnUse" gradientTransform="translate(219.5 218.564) rotate(120) scale(152)">
<stop offset="0.706552" stop-color="#9074FF" stop-opacity="0"/>
<stop offset="1" stop-color="#9074FF"/>
</radialGradient>
<radialGradient id="paint4_radial_230_319" cx="0" cy="0" r="1" gradientUnits="userSpaceOnUse" gradientTransform="translate(219.5 218.564) rotate(120) scale(152)">
<stop offset="0.706552" stop-color="#DB74FF" stop-opacity="0"/>
<stop offset="1" stop-color="#DB74FF"/>
</radialGradient>
<radialGradient id="paint5_radial_230_319" cx="0" cy="0" r="1" gradientUnits="userSpaceOnUse" gradientTransform="translate(219.5 218.564) rotate(120) scale(152)">
<stop offset="0.706552" stop-color="#FB729B" stop-opacity="0"/>
<stop offset="1" stop-color="#FB729B"/>
</radialGradient>
<radialGradient id="paint6_radial_230_319" cx="0" cy="0" r="1" gradientUnits="userSpaceOnUse" gradientTransform="translate(219.5 218.564) rotate(120) scale(152)">
<stop offset="0.706552" stop-color="#FCB56A" stop-opacity="0"/>
<stop offset="1" stop-color="#FCB56A"/>
</radialGradient>
</defs>
</svg>
