<svg width="24" height="25" viewBox="0 0 24 25" fill="none" xmlns="http://www.w3.org/2000/svg">
<g id="ic:baseline-telegram">
<path id="Vector" d="M12 2.12793C6.48 2.12793 2 6.60793 2 12.1279C2 17.6479 6.48 22.1279 12 22.1279C17.52 22.1279 22 17.6479 22 12.1279C22 6.60793 17.52 2.12793 12 2.12793ZM16.64 8.92793C16.49 10.5079 15.84 14.3479 15.51 16.1179C15.37 16.8679 15.09 17.1179 14.83 17.1479C14.25 17.1979 13.81 16.7679 13.25 16.3979C12.37 15.8179 11.87 15.4579 11.02 14.8979C10.03 14.2479 10.67 13.8879 11.24 13.3079C11.39 13.1579 13.95 10.8279 14 10.6179C14.0069 10.5861 14.006 10.5531 13.9973 10.5217C13.9886 10.4904 13.9724 10.4616 13.95 10.4379C13.89 10.3879 13.81 10.4079 13.74 10.4179C13.65 10.4379 12.25 11.3679 9.52 13.2079C9.12 13.4779 8.76 13.6179 8.44 13.6079C8.08 13.5979 7.4 13.4079 6.89 13.2379C6.26 13.0379 5.77 12.9279 5.81 12.5779C5.83 12.3979 6.08 12.2179 6.55 12.0279C9.47 10.7579 11.41 9.91793 12.38 9.51793C15.16 8.35793 15.73 8.15793 16.11 8.15793C16.19 8.15793 16.38 8.17793 16.5 8.27793C16.6 8.35793 16.63 8.46793 16.64 8.54793C16.63 8.60793 16.65 8.78793 16.64 8.92793Z" fill="#7D64DF"/>
</g>
</svg>
