<svg width="24" height="25" viewBox="0 0 24 25" fill="none" xmlns="http://www.w3.org/2000/svg">
<g id="ri:whatsapp-fill">
<path id="Vector" d="M12.001 2.12793C17.524 2.12793 22.001 6.60493 22.001 12.1279C22.001 17.6509 17.524 22.1279 12.001 22.1279C10.2338 22.1308 8.49765 21.6631 6.97099 20.7729L2.00499 22.1279L3.35699 17.1599C2.46608 15.6328 1.99804 13.8959 2.00099 12.1279C2.00099 6.60493 6.47799 2.12793 12.001 2.12793ZM8.59299 7.42793L8.39299 7.43593C8.26351 7.44381 8.13697 7.47783 8.02099 7.53593C7.91251 7.59736 7.81349 7.67415 7.72699 7.76393C7.60699 7.87693 7.53899 7.97493 7.46599 8.06993C7.09611 8.55083 6.89696 9.14124 6.89999 9.74793C6.90199 10.2379 7.02999 10.7149 7.22999 11.1609C7.63899 12.0629 8.31199 13.0179 9.19999 13.9029C9.41399 14.1159 9.62399 14.3299 9.84999 14.5289C10.9534 15.5004 12.2682 16.201 13.69 16.5749L14.258 16.6619C14.443 16.6719 14.628 16.6579 14.814 16.6489C15.1052 16.6339 15.3896 16.555 15.647 16.4179C15.7779 16.3505 15.9057 16.2771 16.03 16.1979C16.03 16.1979 16.073 16.1699 16.155 16.1079C16.29 16.0079 16.373 15.9369 16.485 15.8199C16.568 15.7339 16.64 15.6329 16.695 15.5179C16.773 15.3549 16.851 15.0439 16.883 14.7849C16.907 14.5869 16.9 14.4789 16.897 14.4119C16.893 14.3049 16.804 14.1939 16.707 14.1469L16.125 13.8859C16.125 13.8859 15.255 13.5069 14.723 13.2649C14.6673 13.2406 14.6077 13.2267 14.547 13.2239C14.4786 13.2169 14.4094 13.2246 14.3442 13.2465C14.279 13.2684 14.2193 13.304 14.169 13.3509C14.164 13.3489 14.097 13.4059 13.374 14.2819C13.3325 14.3377 13.2753 14.3798 13.2098 14.403C13.1443 14.4261 13.0733 14.4293 13.006 14.4119C12.9408 14.3945 12.877 14.3724 12.815 14.3459C12.691 14.2939 12.648 14.2739 12.563 14.2379C11.9891 13.9875 11.4577 13.6491 10.988 13.2349C10.862 13.1249 10.745 13.0049 10.625 12.8889C10.2316 12.5122 9.88871 12.0859 9.60499 11.6209L9.54599 11.5259C9.50361 11.4621 9.46935 11.3932 9.44399 11.3209C9.40599 11.1739 9.50499 11.0559 9.50499 11.0559C9.50499 11.0559 9.74799 10.7899 9.86099 10.6459C9.97099 10.5059 10.064 10.3699 10.124 10.2729C10.242 10.0829 10.279 9.88793 10.217 9.73693C9.93699 9.05293 9.64699 8.37193 9.34899 7.69593C9.28999 7.56193 9.11499 7.46593 8.95599 7.44693C8.90199 7.44093 8.84799 7.43493 8.79399 7.43093C8.6597 7.42426 8.52513 7.42559 8.39099 7.43493L8.59199 7.42693L8.59299 7.42793Z" fill="#7D64DF"/>
</g>
</svg>
